<svg width="20.000000" height="20.000000" viewBox="0 0 20 20" fill="none" xmlns="http://www.w3.org/2000/svg" xmlns:xlink="http://www.w3.org/1999/xlink">
	<defs>
		<clipPath id="clip381_104">
			<rect id="Shopping/Icon 35 - 24px" width="20.000000" height="20.000000" fill="white" fill-opacity="0"/>
		</clipPath>
	</defs>
	<g clip-path="url(#clip381_104)">
		<path id="Icon" d="M2.5 1.66699C2.03967 1.66699 1.66663 2.04004 1.66663 2.5L1.66663 17.5C1.66663 17.9609 2.03967 18.334 2.5 18.334L5 18.334C5.46021 18.334 5.83325 17.9609 5.83325 17.5L5.83325 5.83398L9.16663 5.83398L9.16663 7.5L8.33325 7.5C7.41284 7.5 6.66663 8.24609 6.66663 9.16699L6.66663 14.167C6.66663 15.0879 7.41284 15.834 8.33325 15.834L16.6666 15.834C17.5872 15.834 18.3333 15.0879 18.3333 14.167L18.3333 9.16699C18.3333 8.24609 17.5872 7.5 16.6666 7.5L15.8333 7.5L15.8333 5.83398L17.5 5.83398C17.9602 5.83398 18.3333 5.46094 18.3333 5L18.3333 2.5C18.3333 2.04004 17.9602 1.66699 17.5 1.66699L2.5 1.66699ZM15 4.16699L16.6666 4.16699L16.6666 3.33398L3.33325 3.33398L3.33325 16.667L4.16663 16.667L4.16663 5C4.16663 4.54004 4.53967 4.16699 5 4.16699L10 4.16699L15 4.16699ZM14.1666 5.83398L14.1666 7.5L10.8333 7.5L10.8333 5.83398L14.1666 5.83398ZM10 14.167L15 14.167L16.6666 14.167L16.6666 12.5L16.6666 10.834L16.6666 9.16699L15 9.16699L10 9.16699L8.33325 9.16699L8.33325 10.834L8.33325 12.5L8.33325 14.167L10 14.167Z" fill="#1C294D" fill-opacity="0.500000" fill-rule="evenodd"/>
	</g>
</svg>
