<svg width="20.000000" height="20.000000" viewBox="0 0 20 20" fill="none" xmlns="http://www.w3.org/2000/svg" xmlns:xlink="http://www.w3.org/1999/xlink">
	<defs>
		<clipPath id="clip381_79">
			<rect id="Shopping/Icon 1 - 24px" width="20.000000" height="20.000000" fill="white" fill-opacity="0"/>
		</clipPath>
	</defs>
	<g clip-path="url(#clip381_79)">
		<path id="Icon" d="M2.50006 2.5C2.03986 2.5 1.66675 2.87305 1.66675 3.33301C1.66675 3.79395 2.03986 4.16699 2.50006 4.16699L2.50006 3.33301L2.50012 4.16699L2.50012 4.16699L2.50024 4.16699L2.50037 4.16699L2.50049 4.16699L2.50061 4.16699L2.50079 4.16699L2.50165 4.16699L2.50287 4.16699L2.50366 4.16699L2.50403 4.16699L2.50446 4.16699L2.50635 4.16699L2.50861 4.16699L2.50922 4.16699L2.50983 4.16699L2.51117 4.16699L2.54321 4.16699L2.66284 4.16699L3.073 4.16699L3.50159 4.16699L5.4375 12.6846C5.53729 13.124 5.96704 13.4023 6.40594 13.3184C6.45667 13.3281 6.50903 13.333 6.56256 13.333L15.0001 13.333C15.3475 13.333 15.6584 13.1182 15.7803 12.793L18.2803 6.12598C18.3763 5.87012 18.3407 5.58301 18.185 5.3584C18.0294 5.13379 17.7734 5 17.5001 5L5.40015 5L4.97937 3.14844C4.89313 2.76953 4.55585 2.5 4.16675 2.5L3.073 2.5L2.66284 2.5L2.54321 2.5L2.53815 2.5L2.53333 2.5L2.53217 2.5L2.53107 2.5L2.52887 2.5L2.52466 2.5L2.51727 2.5L2.51648 2.5L2.51562 2.5L2.51483 2.5L2.51404 2.5L2.51331 2.5L2.51257 2.5L2.51117 2.5L2.50635 2.5L2.50446 2.5L2.50403 2.5L2.50366 2.5L2.50287 2.5L2.50079 2.5L2.50049 2.5L2.50037 2.5L2.50024 2.5L2.50012 2.5L2.50012 2.5L2.50006 3.33301L2.50006 2.5ZM5.77893 6.66699L6.91528 11.667L14.4226 11.667L16.2976 6.66699L5.77893 6.66699ZM8.33344 14.167C7.41296 14.167 6.66675 14.9131 6.66675 15.833C6.66675 16.7539 7.41296 17.5 8.33344 17.5C9.25391 17.5 10.0001 16.7539 10.0001 15.833C10.0001 14.9131 9.25391 14.167 8.33344 14.167ZM11.6667 15.833C11.6667 14.9131 12.413 14.167 13.3334 14.167C14.2539 14.167 15.0001 14.9131 15.0001 15.833C15.0001 16.7539 14.2539 17.5 13.3334 17.5C12.413 17.5 11.6667 16.7539 11.6667 15.833Z" fill="#1C294D" fill-opacity="0.500000" fill-rule="evenodd"/>
	</g>
</svg>
