<svg width="20.000000" height="20.000000" viewBox="0 0 20 20" fill="none" xmlns="http://www.w3.org/2000/svg" xmlns:xlink="http://www.w3.org/1999/xlink">
	<defs>
		<clipPath id="clip381_100">
			<rect id="Shippings/Shipping 4 - 24px" width="20.000000" height="20.000000" fill="white" fill-opacity="0"/>
		</clipPath>
	</defs>
	<g clip-path="url(#clip381_100)">
		<path id="Icon" d="M13.8214 1.66699L6.17847 1.66699C5.51538 1.66699 4.87952 1.93066 4.41064 2.39941L2.3988 4.41113C1.93005 4.87988 1.66663 5.51562 1.66663 6.17871L1.66663 7.5L1.66663 15.834C1.66663 17.2148 2.78589 18.334 4.16663 18.334L15.8333 18.334C17.214 18.334 18.3333 17.2148 18.3333 15.834L18.3333 7.5L18.3333 6.17871C18.3333 5.51562 18.0699 4.87988 17.6011 4.41113L15.5892 2.39941C15.1204 1.93066 14.4845 1.66699 13.8214 1.66699ZM15.8333 5L14.4106 3.57812C14.2544 3.42188 14.0425 3.33398 13.8214 3.33398L6.17847 3.33398C5.9574 3.33398 5.74548 3.42188 5.58923 3.57812L4.16663 5L15.8333 5ZM3.33325 7.5L3.33325 15.834C3.33325 16.2939 3.70642 16.667 4.16663 16.667L15.8333 16.667C16.2936 16.667 16.6666 16.2939 16.6666 15.834L16.6666 7.5C16.6666 7.04004 16.2936 6.66699 15.8333 6.66699L4.16663 6.66699C3.70642 6.66699 3.33325 7.04004 3.33325 7.5ZM5 14.167C5 13.707 5.37305 13.334 5.83325 13.334L7.5 13.334C7.96021 13.334 8.33325 13.707 8.33325 14.167C8.33325 14.627 7.96021 15 7.5 15L5.83325 15C5.37305 15 5 14.627 5 14.167ZM5.83325 10.834C5.37305 10.834 5 11.207 5 11.667C5 12.127 5.37305 12.5 5.83325 12.5L9.16663 12.5C9.62683 12.5 10 12.127 10 11.667C10 11.207 9.62683 10.834 9.16663 10.834L5.83325 10.834Z" fill="#1C294D" fill-opacity="0.500000" fill-rule="evenodd"/>
	</g>
</svg>
