<svg width="22.000000" height="20.000000" viewBox="0 0 22 20" fill="none" xmlns="http://www.w3.org/2000/svg" xmlns:xlink="http://www.w3.org/1999/xlink">
	<defs>
		<clipPath id="clip381_114">
			<rect id="Communications/Communication 1 - 24px" width="22.000000" height="20.000000" fill="white" fill-opacity="0"/>
		</clipPath>
	</defs>
	<g clip-path="url(#clip381_114)">
		<path id="Icon" d="M4.16675 3.33301C2.78601 3.33301 1.66675 4.45215 1.66675 5.83301L1.66675 14.166C1.66675 15.5469 2.78601 16.666 4.16675 16.666L15.8334 16.666C17.2141 16.666 18.3334 15.5469 18.3334 14.166L18.3334 5.83301C18.3334 4.45215 17.2141 3.33301 15.8334 3.33301L4.16675 3.33301ZM3.40955 5.48438C3.54138 5.19824 3.83093 5 4.16675 5L15.8334 5C16.1693 5 16.4587 5.19824 16.5907 5.48438L10.5117 10.2129C10.2108 10.4463 9.78943 10.4463 9.48853 10.2129L3.40955 5.48438ZM3.33337 7.53711L3.33337 12.3867L6.34387 9.87793L3.33337 7.53711ZM3.40247 14.499C3.53101 14.7939 3.82483 15 4.16675 15L15.8334 15C16.1754 15 16.4692 14.7939 16.5977 14.499L12.3097 10.9258L11.5349 11.5283C10.6322 12.2305 9.36804 12.2305 8.46521 11.5283L7.69055 10.9258L3.40247 14.499ZM16.6667 12.3867L16.6667 7.53711L13.6562 9.87793L16.6667 12.3867Z" fill="#1C294D" fill-opacity="0.500000" fill-rule="evenodd"/>
	</g>
</svg>
