<svg width="20.000000" height="20.000000" viewBox="0 0 20 20" fill="none" xmlns="http://www.w3.org/2000/svg" xmlns:xlink="http://www.w3.org/1999/xlink">
	<defs>
		<clipPath id="clip381_111">
			<rect id="Interface/Interface 28 - 24px" width="20.000000" height="20.000000" fill="white" fill-opacity="0"/>
		</clipPath>
	</defs>
	<g clip-path="url(#clip381_111)">
		<path id="Icon" d="M10.0001 18.334C5.39771 18.334 1.66675 14.6025 1.66675 10C1.66675 5.39844 5.39771 1.66699 10.0001 1.66699C14.6025 1.66699 18.3334 5.39844 18.3334 10C18.3334 14.6025 14.6025 18.334 10.0001 18.334ZM10.0001 3.33398C6.31818 3.33398 3.33344 6.31836 3.33344 10C3.33344 13.6826 6.31818 16.667 10.0001 16.667C13.682 16.667 16.6667 13.6826 16.6667 10C16.6667 6.31836 13.682 3.33398 10.0001 3.33398ZM10.0001 8.95898C10.5754 8.95898 11.0417 9.4248 11.0417 10L11.0417 13.334C11.0417 13.9092 10.5754 14.375 10.0001 14.375C9.4248 14.375 8.95844 13.9092 8.95844 13.334L8.95844 10C8.95844 9.4248 9.4248 8.95898 10.0001 8.95898ZM10.0001 5.83398C9.4248 5.83398 8.95844 6.2998 8.95844 6.875C8.95844 7.4502 9.4248 7.91699 10.0001 7.91699C10.5754 7.91699 11.0417 7.4502 11.0417 6.875C11.0417 6.2998 10.5754 5.83398 10.0001 5.83398Z" fill="#27AE60" fill-opacity="1.000000" fill-rule="evenodd"/>
	</g>
</svg>
