<svg width="20.000000" height="20.000000" viewBox="0 0 20 20" fill="none" xmlns="http://www.w3.org/2000/svg" xmlns:xlink="http://www.w3.org/1999/xlink">
	<defs>
		<clipPath id="clip381_119">
			<rect id="Interface/Interface 85 - 24px" width="20.000000" height="20.000000" fill="white" fill-opacity="0"/>
		</clipPath>
	</defs>
	<g clip-path="url(#clip381_119)">
		<path id="Icon" d="M3.33337 5.83301C3.33337 5.37305 3.70642 5 4.16675 5L15.8334 5C16.2936 5 16.6667 5.37305 16.6667 5.83301C16.6667 6.29395 16.2936 6.66699 15.8334 6.66699L4.16675 6.66699C3.70642 6.66699 3.33337 6.29395 3.33337 5.83301ZM3.33337 10C3.33337 9.54004 3.70642 9.16699 4.16675 9.16699L11.6667 9.16699C12.127 9.16699 12.5 9.54004 12.5 10C12.5 10.46 12.127 10.833 11.6667 10.833L4.16675 10.833C3.70642 10.833 3.33337 10.46 3.33337 10ZM4.16675 13.333C3.70642 13.333 3.33337 13.7061 3.33337 14.167C3.33337 14.627 3.70642 15 4.16675 15L15.8334 15C16.2936 15 16.6667 14.627 16.6667 14.167C16.6667 13.7061 16.2936 13.333 15.8334 13.333L4.16675 13.333Z" fill="#1C294D" fill-opacity="1.000000" fill-rule="evenodd"/>
		<path id="Icon" d="M3.33398 10C3.33398 9.54004 3.70703 9.16699 4.16736 9.16699L11.6674 9.16699C12.1276 9.16699 12.5006 9.54004 12.5006 10C12.5006 10.4609 12.1276 10.834 11.6674 10.834L4.16736 10.834C3.70703 10.834 3.33398 10.4609 3.33398 10Z" fill="#FC6E1D" fill-opacity="1.000000" fill-rule="evenodd"/>
	</g>
</svg>
