<svg width="20.000000" height="20.000000" viewBox="0 0 20 20" fill="none" xmlns="http://www.w3.org/2000/svg" xmlns:xlink="http://www.w3.org/1999/xlink">
	<defs>
		<clipPath id="clip381_86">
			<rect id="Interface/Interface 166 - 24px" width="20.000000" height="20.000000" fill="white" fill-opacity="0"/>
		</clipPath>
	</defs>
	<g clip-path="url(#clip381_86)">
		<path id="Icon" d="M1.66675 10C1.66675 14.6025 5.39771 18.334 10.0001 18.334C14.6024 18.334 18.3334 14.6025 18.3334 10C18.3334 5.39844 14.6024 1.66699 10.0001 1.66699C5.39771 1.66699 1.66675 5.39844 1.66675 10ZM3.33337 10C3.33337 6.31836 6.31824 3.33398 10.0001 3.33398C13.682 3.33398 16.6667 6.31836 16.6667 10C16.6667 13.6826 13.682 16.667 10.0001 16.667C6.31824 16.667 3.33337 13.6826 3.33337 10ZM7.50012 10.834C7.50012 10.373 7.12695 10 6.66675 10C6.20654 10 5.83337 10.373 5.83337 10.834C5.83337 13.1348 7.69885 15 10.0001 15C12.3013 15 14.1667 13.1348 14.1667 10.834C14.1667 10.373 13.7937 10 13.3334 10C12.8732 10 12.5001 10.373 12.5001 10.834C12.5001 12.2148 11.3807 13.334 10.0001 13.334C8.61938 13.334 7.50012 12.2148 7.50012 10.834ZM6.66675 8.33398C7.12695 8.33398 7.50012 7.96094 7.50012 7.5C7.50012 7.96094 7.87317 8.33398 8.33337 8.33398C8.7937 8.33398 9.16675 7.96094 9.16675 7.5C9.16675 6.58008 8.42053 5.83398 7.50012 5.83398C6.57959 5.83398 5.83337 6.58008 5.83337 7.5C5.83337 7.96094 6.20654 8.33398 6.66675 8.33398ZM12.5001 7.5C12.5001 7.96094 12.127 8.33398 11.6667 8.33398C11.2065 8.33398 10.8334 7.96094 10.8334 7.5C10.8334 6.58008 11.5796 5.83398 12.5001 5.83398C13.4205 5.83398 14.1667 6.58008 14.1667 7.5C14.1667 7.96094 13.7937 8.33398 13.3334 8.33398C12.8732 8.33398 12.5001 7.96094 12.5001 7.5Z" fill="#1C294D" fill-opacity="0.500000" fill-rule="evenodd"/>
	</g>
</svg>
