<svg width="20.000000" height="20.000000" viewBox="0 0 20 20" fill="none" xmlns="http://www.w3.org/2000/svg" xmlns:xlink="http://www.w3.org/1999/xlink">
	<defs>
		<clipPath id="clip381_97">
			<rect id="Places/Icon 28 - 24px" width="20.000000" height="20.000000" fill="white" fill-opacity="0"/>
		</clipPath>
	</defs>
	<g clip-path="url(#clip381_97)">
		<path id="Icon" d="M13.5844 9.87988L10 15.792L6.41553 9.87988C4.677 7.01172 6.69702 3.30957 10 3.30957C13.303 3.30957 15.3229 7.01172 13.5844 9.87988ZM5.04797 10.7441C2.646 6.78223 5.43677 1.66699 10 1.66699C14.5632 1.66699 17.3539 6.78223 14.952 10.7441L10.5355 18.0293C10.2893 18.4355 9.71069 18.4355 9.46436 18.0293L5.04797 10.7441ZM10.0001 5.77344C9.11182 5.77344 8.3916 6.50879 8.3916 7.41504C8.3916 8.32227 9.11182 9.05762 10.0001 9.05762C10.8884 9.05762 11.6086 8.32227 11.6086 7.41504C11.6086 6.50879 10.8884 5.77344 10.0001 5.77344Z" fill="#1C294D" fill-opacity="0.500000" fill-rule="evenodd"/>
	</g>
</svg>
