<svg width="20.000000" height="20.000000" viewBox="0 0 20 20" fill="none" xmlns="http://www.w3.org/2000/svg" xmlns:xlink="http://www.w3.org/1999/xlink">
	<defs>
		<clipPath id="clip381_109">
			<rect id="Devices/Device 32 - 24px" width="20.000000" height="20.000000" fill="white" fill-opacity="0"/>
		</clipPath>
	</defs>
	<g clip-path="url(#clip381_109)">
		<path id="Icon" d="M11.1519 2.15234C11.3441 1.73438 11.8397 1.55176 12.2588 1.74316C14.4061 2.72461 17.024 4.62988 18.2626 7.43945C18.448 7.86035 18.2561 8.35059 17.834 8.53613C17.4119 8.7207 16.9194 8.5293 16.7339 8.1084C15.72 5.80859 13.5011 4.1416 11.5624 3.25488C11.1433 3.06348 10.9595 2.56934 11.1519 2.15234ZM6.66016 2.60938C6.28101 2.01172 5.46704 1.62598 4.67981 1.99609C3.82593 2.39746 2.84094 3.14355 2.23267 4.32715C1.61353 5.53223 1.43201 7.09961 2.04541 9.03223C2.88037 11.6641 4.98511 13.7979 6.85132 15.2734C8.73718 16.7646 10.4949 17.6729 10.7931 17.8223C10.8558 17.8545 10.9142 17.8789 10.9845 17.9023C11.2623 17.9941 12.7836 18.4707 14.3741 18.2949C15.1827 18.2051 16.0654 17.9414 16.8065 17.3184C17.5602 16.6846 18.089 15.7451 18.2914 14.4561C18.4042 13.7383 18.0063 13.1025 17.4501 12.7979C16.6161 12.3408 15.6958 11.793 15.0302 11.3867C14.3105 10.9463 13.3656 11.1025 12.8348 11.7715L11.7108 13.1885C10.7009 12.7041 8.48083 11.3799 6.82007 8.51562C6.96082 8.39062 7.12866 8.24707 7.30359 8.09668C7.62219 7.82324 7.96472 7.5293 8.21082 7.29102C8.78516 6.7334 8.76099 5.91992 8.40771 5.36328L6.66016 2.60938ZM6.95447 6.18652L5.28406 3.55371C4.71228 3.8457 4.09827 4.34668 3.71875 5.08594C3.32629 5.84961 3.13794 6.95703 3.63733 8.53027C4.32068 10.6836 6.1073 12.5615 7.88916 13.9707C9.61707 15.3369 11.2345 16.1797 11.5295 16.3291C11.7969 16.416 13.0023 16.7725 14.1897 16.6416C14.7844 16.5752 15.3176 16.3926 15.7299 16.0459C16.1226 15.7158 16.4786 15.1768 16.6337 14.249C15.7705 13.7754 14.8308 13.2158 14.1572 12.8047C14.1548 12.8027 14.1522 12.8027 14.1522 12.8027C14.1522 12.8027 14.1492 12.8027 14.1473 12.8027C14.1456 12.8027 14.1447 12.8037 14.1447 12.8037L12.9886 14.2607C12.5596 14.8018 11.7888 15.0625 11.0793 14.7314C9.90186 14.1826 7.27002 12.6523 5.34045 9.28906C4.97559 8.65332 5.08447 7.83594 5.64832 7.32812C5.87573 7.12305 6.0918 6.93848 6.29553 6.76562C6.53247 6.56348 6.75269 6.37598 6.95447 6.18652ZM10.5206 5.06641C10.7268 4.65527 11.2283 4.48926 11.6406 4.69434C12.5259 5.13574 13.2351 5.59961 13.8403 6.20215C14.4456 6.80566 14.9108 7.5127 15.3533 8.39453C15.5596 8.80566 15.3923 9.30469 14.98 9.51074C14.5676 9.71582 14.0662 9.5498 13.86 9.13867C13.4677 8.35645 13.098 7.81543 12.6597 7.37891C12.2213 6.94238 11.6785 6.57324 10.8939 6.18262C10.4816 5.97754 10.3145 5.47754 10.5206 5.06641Z" fill="#1C294D" fill-opacity="0.500000" fill-rule="evenodd"/>
	</g>
</svg>
