<svg width="20.000000" height="20.000000" viewBox="0 0 20 20" fill="none" xmlns="http://www.w3.org/2000/svg" xmlns:xlink="http://www.w3.org/1999/xlink">
	<defs>
		<clipPath id="clip381_89">
			<rect id="Interface/Interface 100 - 24px" width="20.000000" height="20.000000" fill="white" fill-opacity="0"/>
		</clipPath>
	</defs>
	<g clip-path="url(#clip381_89)">
		<path id="Icon" d="M6.66663 4.18164C6.66663 3.71875 7.03979 3.34375 7.5 3.34375L12.5 3.34375C12.9602 3.34375 13.3334 3.71875 13.3334 4.18164L13.3334 16.2334C13.3334 16.5967 12.906 16.7881 12.6379 16.5459L10.5575 14.6621C10.2406 14.375 9.7594 14.375 9.4425 14.6621L7.36206 16.5459C7.09399 16.7881 6.66663 16.5967 6.66663 16.2334L6.66663 4.18164ZM7.5 1.66699L12.5 1.66699C13.8807 1.66699 15 2.79297 15 4.18164L15 16.2334C15 18.0479 12.8636 19.0049 11.5229 17.792L10 16.4131L8.47705 17.792C7.13635 19.0049 5 18.0479 5 16.2334L5 4.18164C5 2.79297 6.11926 1.66699 7.5 1.66699Z" fill="#1C294D" fill-opacity="0.500000" fill-rule="evenodd"/>
	</g>
</svg>
