<svg width="95.000000" height="95.000000" viewBox="0 0 95 95" fill="none" xmlns="http://www.w3.org/2000/svg" xmlns:xlink="http://www.w3.org/1999/xlink">
	<defs>
		<clipPath id="clip381_262">
			<rect id="Arrows / Chevron Right 1 - 24px" width="20.000000" height="20.000000" transform="matrix(-1 0 0 1 57 37)" fill="white" fill-opacity="0"/>
		</clipPath>
	</defs>
	<path id="Mask" d="M62 28L32 28C29.2385 28 27 30.2383 27 33L27 63C27 65.7617 29.2385 68 32 68L62 68C64.7615 68 67 65.7617 67 63L67 33C67 30.2383 64.7615 28 62 28Z" fill="#FFFFFF" fill-opacity="0.850000" fill-rule="evenodd"/>
	<mask id="mask381_261" mask-type="alpha" maskUnits="userSpaceOnUse" x="0.000000" y="0.000000" width="95.000000" height="95.000000">
		<path id="Mask" d="M85 0L10 0C4.47717 0 0 4.47754 0 10L0 85C0 90.5225 4.47717 95 10 95L85 95C90.5228 95 95 90.5225 95 85L95 10C95 4.47754 90.5228 0 85 0Z" fill="#783CBD" fill-opacity="1.000000" fill-rule="evenodd"/>
	</mask>
	<g clip-path="url(#clip381_262)">
		<path id="Icon" d="M50.0894 41.4111C49.7639 41.0859 49.2362 41.0859 48.9108 41.4111L43.9108 46.4111C43.5853 46.7363 43.5853 47.2637 43.9108 47.5898L48.9108 52.5898C49.2362 52.915 49.7639 52.915 50.0894 52.5898C50.4147 52.2637 50.4147 51.7363 50.0894 51.4111L45.6786 47L50.0894 42.5898C50.4147 42.2637 50.4147 41.7363 50.0894 41.4111Z" fill="#2A3D48" fill-opacity="0.500000" fill-rule="evenodd"/>
	</g>
</svg>
