<svg width="20.000000" height="20.000000" viewBox="0 0 20 20" fill="none" xmlns="http://www.w3.org/2000/svg" xmlns:xlink="http://www.w3.org/1999/xlink">
	<defs>
		<clipPath id="clip381_127">
			<rect id="Shopping/Icon 16 - 24px" width="20.000000" height="20.000000" fill="white" fill-opacity="0"/>
		</clipPath>
	</defs>
	<g clip-path="url(#clip381_127)">
		<path id="Icon" d="M1.91821 1.91895C2.25366 1.58301 2.79749 1.58301 3.13281 1.91895L6.06384 4.84961C6.30835 4.7373 6.57324 4.66309 6.85107 4.63184L9.7085 4.31543C10.4863 4.22852 11.2612 4.50098 11.8147 5.05371L17.5786 10.8184C18.5848 11.8242 18.5848 13.4561 17.5786 14.4619L14.4614 17.5791C13.4551 18.585 11.8236 18.585 10.8174 17.5791L4.82788 11.5898C4.22583 10.9873 3.96008 10.127 4.1178 9.29004L4.60303 6.71582C4.64783 6.47852 4.72473 6.25293 4.82886 6.04395L1.91821 3.13281C1.58276 2.79785 1.58276 2.25391 1.91821 1.91895ZM7.03955 8.25488L6.21631 7.43164L5.80579 9.6084C5.7533 9.8877 5.84192 10.1748 6.0426 10.375L12.032 16.3643C12.3674 16.7002 12.9113 16.7002 13.2467 16.3643L16.3639 13.2471C16.6993 12.9121 16.6993 12.3682 16.3639 12.0322L10.6 6.26855C10.4155 6.08398 10.1572 5.99414 9.89795 6.02246L7.50256 6.28809L8.27441 7.05957C8.88953 6.88477 9.57849 7.04004 10.0627 7.52441C10.7743 8.23535 10.7743 9.38867 10.0627 10.1006C9.3512 10.8125 8.19763 10.8125 7.48608 10.1006C6.98657 9.60156 6.83777 8.88379 7.03955 8.25488Z" fill="#FF283D" fill-opacity="1.000000" fill-rule="evenodd"/>
	</g>
</svg>
